<svg width="55" height="55" viewBox="0 0 55 55" fill="none" xmlns="http://www.w3.org/2000/svg">
<g clip-path="url(#clip0_2_66)">
<path d="M55 25.7812C55.0003 27.4254 54.5289 29.0352 53.6417 30.4195C52.7546 31.8039 51.489 32.9046 49.995 33.5912C49.3962 32.5405 48.643 31.5857 47.7606 30.7587C49.0807 30.3991 50.2039 29.5297 50.8831 28.342C51.5622 27.1542 51.7417 25.7453 51.382 24.4252C51.0224 23.105 50.153 21.9819 48.9653 21.3027C47.7775 20.6236 46.3686 20.4441 45.0484 20.8037C44.8109 20.8681 44.5622 20.8808 44.3193 20.8407C44.0765 20.8007 43.845 20.709 43.6407 20.5718C43.4363 20.4346 43.2638 20.2551 43.1349 20.0454C43.0059 19.8357 42.9234 19.6008 42.8931 19.3566C42.65 17.388 41.8444 15.5313 40.5728 14.009C39.3011 12.4868 37.6175 11.3635 35.7236 10.774C33.8297 10.1844 31.806 10.1535 29.895 10.685C27.984 11.2165 26.2669 12.2879 24.9494 13.7706C23.4805 13.7032 22.0088 13.8047 20.5631 14.0731C21.8814 11.6456 23.8999 9.67116 26.3559 8.40681C28.8119 7.14247 31.5917 6.6468 34.3333 6.98431C37.075 7.32183 39.6516 8.4769 41.7276 10.2992C43.8036 12.1214 45.283 14.5265 45.9731 17.2012C47.1364 17.1425 48.2995 17.3209 49.3918 17.7256C50.484 18.1302 51.4826 18.7527 52.3268 19.5552C53.1711 20.3576 53.8434 21.3233 54.3029 22.3936C54.7625 23.4639 54.9996 24.6165 55 25.7812Z" fill="black"/>
<path d="M24.0625 17.1875C27.868 17.1868 31.5402 18.5888 34.3769 21.1255C37.2135 23.6622 39.0156 27.1556 39.4384 30.9375H39.5312C41.8105 30.9375 43.9963 31.8429 45.6079 33.4546C47.2196 35.0662 48.125 37.252 48.125 39.5312C48.125 41.8105 47.2196 43.9963 45.6079 45.6079C43.9963 47.2196 41.8105 48.125 39.5312 48.125H10.3125C7.64967 48.127 5.08928 47.0989 3.16728 45.2559C1.24528 43.413 0.110677 40.898 0.000967285 38.2374C-0.108742 35.5768 0.814948 32.9769 2.57869 30.982C4.34243 28.987 6.80948 27.7516 9.46344 27.5344C10.5257 24.5102 12.5008 21.8905 15.1159 20.037C17.7311 18.1836 20.8572 17.1879 24.0625 17.1875V17.1875ZM36.0937 32.6562C36.0958 29.7259 35.0282 26.8955 33.0915 24.6963C31.1548 22.4971 28.482 21.0804 25.5748 20.7121C22.6677 20.3437 19.726 21.0491 17.302 22.6957C14.878 24.3423 13.1383 26.817 12.4094 29.6553C12.3107 30.0395 12.0823 30.3777 11.7628 30.6126C11.4433 30.8476 11.0523 30.9648 10.6562 30.9444C9.74311 30.9038 8.83105 31.0458 7.97343 31.3619C7.11581 31.6781 6.32983 32.1621 5.66148 32.7856C4.99314 33.4091 4.45583 34.1596 4.081 34.9933C3.70617 35.8269 3.50133 36.727 3.47848 37.6407C3.45562 38.5545 3.6152 39.4636 3.94789 40.3149C4.28058 41.1663 4.77969 41.9427 5.41603 42.5989C6.05237 43.255 6.81316 43.7777 7.65391 44.1363C8.49466 44.495 9.39848 44.6823 10.3125 44.6875H39.5312C40.2624 44.6858 40.9848 44.5287 41.6505 44.2265C42.3162 43.9243 42.9101 43.484 43.3927 42.9348C43.8753 42.3856 44.2356 41.74 44.4496 41.0409C44.6637 40.3419 44.7266 39.6052 44.6343 38.88C44.5419 38.1547 44.2964 37.4574 43.914 36.8343C43.5316 36.2111 43.021 35.6765 42.4162 35.2657C41.8114 34.855 41.1261 34.5775 40.4059 34.4518C39.6857 34.3261 38.947 34.355 38.2387 34.5366C37.9828 34.6021 37.7151 34.6078 37.4566 34.5531C37.1981 34.4984 36.9556 34.3848 36.7481 34.2212C36.5406 34.0576 36.3736 33.8484 36.2601 33.6097C36.1467 33.3711 36.0897 33.1095 36.0937 32.8453V32.6562Z" fill="black"/>
</g>
<defs>
<clipPath id="clip0_2_66">
<rect width="55" height="55" fill="white"/>
</clipPath>
</defs>
</svg>
