<svg width="55" height="55" viewBox="0 0 55 55" fill="none" xmlns="http://www.w3.org/2000/svg">
<path d="M44.6875 51.5625H37.8125C36.9017 51.5598 36.0289 51.1967 35.3848 50.5527C34.7408 49.9086 34.3777 49.0358 34.375 48.125V36.0938C33.4642 36.091 32.5914 35.728 31.9473 35.0839C31.3033 34.4399 30.9402 33.5671 30.9375 32.6563V22.3438C30.9249 21.6632 31.0497 20.987 31.3043 20.3557C31.559 19.7245 31.9383 19.151 32.4197 18.6697C32.901 18.1883 33.4745 17.809 34.1057 17.5543C34.737 17.2997 35.4132 17.1749 36.0938 17.1875H46.4062C47.0868 17.1749 47.763 17.2997 48.3943 17.5543C49.0255 17.809 49.599 18.1883 50.0803 18.6697C50.5617 19.151 50.941 19.7245 51.1957 20.3557C51.4503 20.987 51.5751 21.6632 51.5625 22.3438V32.6563C51.5598 33.5671 51.1967 34.4399 50.5527 35.0839C49.9086 35.728 49.0358 36.091 48.125 36.0938V48.125C48.1223 49.0358 47.7592 49.9086 47.1152 50.5527C46.4711 51.1967 45.5983 51.5598 44.6875 51.5625V51.5625ZM36.0938 20.625C35.8644 20.6112 35.6348 20.6462 35.4201 20.7277C35.2053 20.8092 35.0102 20.9354 34.8478 21.0978C34.6854 21.2602 34.5592 21.4553 34.4777 21.6701C34.3962 21.8848 34.3612 22.1144 34.375 22.3438V32.6563H37.8125V48.125H44.6875V32.6563H48.125V22.3438C48.1388 22.1144 48.1038 21.8848 48.0223 21.6701C47.9408 21.4553 47.8146 21.2602 47.6522 21.0978C47.4898 20.9354 47.2947 20.8092 47.0799 20.7277C46.8652 20.6462 46.6356 20.6112 46.4062 20.625H36.0938ZM41.25 15.4688C39.8903 15.4688 38.561 15.0655 37.4305 14.3101C36.2999 13.5547 35.4187 12.4809 34.8983 11.2247C34.378 9.96846 34.2418 8.58613 34.5071 7.25251C34.7724 5.91889 35.4272 4.69388 36.3886 3.73239C37.3501 2.77091 38.5751 2.11613 39.9088 1.85085C41.2424 1.58558 42.6247 1.72173 43.8809 2.24208C45.1372 2.76243 46.2109 3.64362 46.9664 4.77421C47.7218 5.9048 48.125 7.23401 48.125 8.59375C48.1196 10.4154 47.3935 12.161 46.1053 13.4491C44.8172 14.7372 43.0717 15.4633 41.25 15.4688ZM41.25 5.15625C40.5701 5.15625 39.9055 5.35786 39.3402 5.73558C38.7749 6.11329 38.3343 6.65016 38.0742 7.27828C37.814 7.9064 37.7459 8.59757 37.8785 9.26438C38.0112 9.93119 38.3386 10.5437 38.8193 11.0244C39.3001 11.5052 39.9126 11.8326 40.5794 11.9652C41.2462 12.0978 41.9374 12.0298 42.5655 11.7696C43.1936 11.5094 43.7305 11.0688 44.1082 10.5035C44.4859 9.93823 44.6875 9.27363 44.6875 8.59375C44.6848 7.68291 44.3217 6.81015 43.6777 6.16608C43.0336 5.52201 42.1608 5.15897 41.25 5.15625V5.15625ZM17.1875 34.6913V20.625H13.75V34.6913C12.6032 35.0967 11.6367 35.8945 11.0213 36.9436C10.4058 37.9928 10.1811 39.2257 10.3868 40.4245C10.5924 41.6234 11.2153 42.7109 12.1453 43.4949C13.0752 44.2789 14.2524 44.7089 15.4687 44.7089C16.6851 44.7089 17.8623 44.2789 18.7922 43.4949C19.7222 42.7109 20.3451 41.6234 20.5507 40.4245C20.7564 39.2257 20.5317 37.9928 19.9162 36.9436C19.3008 35.8945 18.3343 35.0967 17.1875 34.6913V34.6913Z" fill="black"/>
<path d="M15.4687 51.5625C13.1003 51.5652 10.7838 50.868 8.81021 49.5585C6.83662 48.2491 5.29391 46.3857 4.37579 44.2024C3.45767 42.0191 3.20507 39.6133 3.64971 37.2869C4.09435 34.9605 5.21642 32.8174 6.875 31.1266V12.0312C6.875 9.75205 7.78041 7.56619 9.39205 5.95455C11.0037 4.34291 13.1895 3.4375 15.4687 3.4375C17.748 3.4375 19.9338 4.34291 21.5454 5.95455C23.1571 7.56619 24.0625 9.75205 24.0625 12.0312V31.1266C25.7211 32.8174 26.8431 34.9605 27.2878 37.2869C27.7324 39.6133 27.4798 42.0191 26.5617 44.2024C25.6436 46.3857 24.1009 48.2491 22.1273 49.5585C20.1537 50.868 17.8372 51.5652 15.4687 51.5625ZM15.4687 6.875C14.1016 6.87637 12.7909 7.42005 11.8242 8.38674C10.8575 9.35343 10.3139 10.6641 10.3125 12.0312V32.627L9.74188 33.1409C8.44401 34.3009 7.52901 35.8277 7.118 37.5192C6.70698 39.2107 6.81932 40.9872 7.44016 42.6134C8.06099 44.2396 9.16104 45.639 10.5947 46.6263C12.0284 47.6135 13.728 48.1421 15.4687 48.1421C17.2095 48.1421 18.9091 47.6135 20.3428 46.6263C21.7765 45.639 22.8765 44.2396 23.4973 42.6134C24.1182 40.9872 24.2305 39.2107 23.8195 37.5192C23.4085 35.8277 22.4935 34.3009 21.1956 33.1409L20.625 32.627V12.0312C20.6236 10.6641 20.08 9.35343 19.1133 8.38674C18.1466 7.42005 16.8359 6.87637 15.4687 6.875V6.875Z" fill="black"/>
</svg>
