<svg width="55" height="55" viewBox="0 0 55 55" fill="none" xmlns="http://www.w3.org/2000/svg">
<path d="M42.7754 14.7391C42.1914 11.0982 40.3262 7.78562 37.5158 5.39838C34.7054 3.01114 31.1347 1.70628 27.4472 1.71896C23.7598 1.73165 20.1982 3.06105 17.4043 5.46758C14.6103 7.8741 12.7679 11.1994 12.209 14.8443C9.60096 15.3001 7.19133 16.5329 5.29568 18.3813C4.16523 19.4759 3.26613 20.7864 2.65169 22.235C2.03725 23.6837 1.72 25.241 1.71875 26.8145C1.71875 30.1574 3.09257 33.3417 5.58701 35.7809C5.7904 35.9797 5.99969 36.1712 6.21489 36.3553L7.43166 32.705C6.0254 31.0771 5.15625 29.0057 5.15625 26.8145C5.15625 22.2639 8.99379 18.434 13.8928 18.0953L15.4026 17.9909L15.49 16.48C15.6704 13.4191 17.0126 10.5426 19.2426 8.43811C21.4725 6.33362 24.4219 5.15998 27.4881 5.15696C30.5543 5.15394 33.5059 6.32178 35.74 8.42188C37.9741 10.522 39.322 13.3959 39.5084 16.4564L39.6041 18.0557L41.2061 18.0723C46.2111 18.1248 49.8438 21.8014 49.8438 26.8145C49.8438 30.3758 48.0492 33.4081 45.3492 34.9679L43.939 39.1982C46.2062 38.6475 48.2596 37.4381 49.8405 35.7223C52.0593 33.3372 53.2812 30.1736 53.2812 26.8145C53.2812 20.4646 48.8618 15.5117 42.7754 14.7391V14.7391Z" fill="black"/>
<path d="M13.5383 53.2812H17.1678L23.9715 33.208L20.716 32.1045L13.5383 53.2812ZM31.5851 53.2812H35.2147L42.0184 33.208L38.7629 32.1045L31.5851 53.2812ZM31.1642 26.9664L24.2538 48.125H27.8701L34.4318 28.0336L31.1642 26.9664ZM13.835 26.9664L6.92452 48.125H10.5408L17.1025 28.0336L13.835 26.9664V26.9664Z" fill="black"/>
</svg>
