<svg width="55" height="55" viewBox="0 0 55 55" fill="none" xmlns="http://www.w3.org/2000/svg">
<path d="M29.7917 27.5C29.7917 28.7604 28.7604 29.7917 27.5 29.7917C26.2396 29.7917 25.2083 28.7604 25.2083 27.5C25.2083 26.2396 26.2396 25.2083 27.5 25.2083C28.7604 25.2083 29.7917 26.2396 29.7917 27.5ZM22.9167 27.5L16.0417 20.625V25.2083H6.875V29.7917H16.0417V34.375L22.9167 27.5ZM32.0833 27.5L38.9583 34.375V29.7917H48.125V25.2083H38.9583V20.625L32.0833 27.5ZM46.9792 8.02083L44.5042 10.4958C48.8583 14.8958 51.5625 20.8771 51.5625 27.5C51.5625 34.1458 48.8583 40.1042 44.5042 44.5042L46.9792 46.9792C51.9292 41.9604 55 35.0854 55 27.5C55 19.9146 51.9292 13.0396 46.9792 8.02083ZM13.0396 20.625C15.6063 15.2167 21.1292 11.4583 27.5 11.4583C33.8708 11.4583 39.3938 15.2167 41.9833 20.625H46.9792C44.0917 12.6042 36.4833 6.875 27.5 6.875C18.5167 6.875 10.9083 12.6042 8.02083 20.625H13.0396M10.4958 10.4958L8.02083 8.02083C3.07083 13.0396 0 19.9146 0 27.5C0 35.0854 3.07083 41.9604 8.02083 46.9792L10.4958 44.5042C6.14167 40.1042 3.4375 34.1458 3.4375 27.5C3.4375 20.8771 6.14167 14.8958 10.4958 10.4958ZM41.9833 34.375C39.3938 39.7833 33.8938 43.5417 27.5 43.5417C21.1063 43.5417 15.6063 39.7833 13.0396 34.375H8.02083C10.9083 42.3958 18.5167 48.125 27.5 48.125C36.4833 48.125 44.0917 42.3958 46.9792 34.375H41.9833Z" fill="black"/>
</svg>
