<svg width="55" height="55" viewBox="0 0 55 55" fill="none" xmlns="http://www.w3.org/2000/svg">
<path d="M27.5 10.1613L30.4975 15.2023L31.8433 17.4625L34.375 16.7561L39.7392 15.2608L38.2439 20.625L37.5375 23.1567L39.7977 24.5008L44.8387 27.5L39.7977 30.4975L37.5375 31.8416L38.2439 34.375L39.7392 39.7392L34.3767 38.2439L31.8433 37.5375L30.4975 39.7977L27.5 44.8387L24.5025 39.7977L23.1567 37.5375L20.625 38.2439L15.2625 39.7392L16.7544 34.375L17.4591 31.8416L15.2006 30.4975L10.1613 27.5L15.2023 24.5008L17.4625 23.1567L16.7561 20.625L15.2608 15.2625L20.625 16.7544L23.1584 17.4591L24.5025 15.2006L27.5 10.1613ZM27.5 3.4375L21.548 13.4441L10.3125 10.3125L13.4441 21.548L3.4375 27.5L13.4441 33.452L10.3125 44.6875L21.548 41.5559L27.5 51.5625L33.452 41.5559L44.6875 44.6875L41.5559 33.452L51.5625 27.5L41.5559 21.548L44.6875 10.3125L33.452 13.4441L27.5 3.4375Z" fill="black"/>
</svg>
