<svg width="55" height="55" viewBox="0 0 55 55" fill="none" xmlns="http://www.w3.org/2000/svg">
<g clip-path="url(#clip0_2_64)">
<path d="M42.9688 6.87501C40.6895 6.87501 38.5037 7.78042 36.8921 9.39206C35.2804 11.0037 34.375 13.1896 34.375 15.4688C34.375 15.9246 34.1939 16.3618 33.8716 16.6841C33.5493 17.0064 33.1121 17.1875 32.6562 17.1875C32.2004 17.1875 31.7632 17.0064 31.4409 16.6841C31.1186 16.3618 30.9375 15.9246 30.9375 15.4688C30.9375 13.0892 31.6431 10.7631 32.9651 8.78455C34.2871 6.80602 36.1662 5.26395 38.3646 4.35333C40.563 3.44271 42.9821 3.20445 45.3159 3.66868C47.6498 4.13291 49.7935 5.27878 51.4761 6.96138C53.1587 8.64398 54.3046 10.7877 54.7688 13.1216C55.2331 15.4554 54.9948 17.8745 54.0842 20.0729C53.1736 22.2713 51.6315 24.1504 49.653 25.4724C47.6744 26.7944 45.3483 27.5 42.9688 27.5H1.71875C1.26291 27.5 0.825738 27.3189 0.50341 26.9966C0.181082 26.6743 0 26.2371 0 25.7813C0 25.3254 0.181082 24.8882 0.50341 24.5659C0.825738 24.2436 1.26291 24.0625 1.71875 24.0625H42.9688C45.248 24.0625 47.4338 23.1571 49.0454 21.5455C50.6571 19.9338 51.5625 17.748 51.5625 15.4688C51.5625 13.1896 50.6571 11.0037 49.0454 9.39206C47.4338 7.78042 45.248 6.87501 42.9688 6.87501V6.87501ZM18.9062 10.3125C17.9946 10.3125 17.1202 10.6747 16.4756 11.3193C15.8309 11.964 15.4688 12.8383 15.4688 13.75C15.4688 14.2058 15.2877 14.643 14.9653 14.9653C14.643 15.2877 14.2058 15.4688 13.75 15.4688C13.2942 15.4688 12.857 15.2877 12.5347 14.9653C12.2123 14.643 12.0312 14.2058 12.0312 13.75C12.0313 12.3903 12.4345 11.061 13.1899 9.93046C13.9453 8.79987 15.0191 7.91869 16.2753 7.39833C17.5315 6.87798 18.9139 6.74183 20.2475 7.00711C21.5811 7.27238 22.8061 7.92716 23.7676 8.88865C24.7291 9.85013 25.3839 11.0751 25.6491 12.4088C25.9144 13.7424 25.7783 15.1247 25.2579 16.381C24.7376 17.6372 23.8564 18.7109 22.7258 19.4664C21.5952 20.2218 20.266 20.625 18.9062 20.625H1.71875C1.26291 20.625 0.825738 20.4439 0.50341 20.1216C0.181082 19.7993 0 19.3621 0 18.9063C0 18.4504 0.181082 18.0132 0.50341 17.6909C0.825738 17.3686 1.26291 17.1875 1.71875 17.1875H18.9062C19.8179 17.1875 20.6923 16.8253 21.3369 16.1807C21.9816 15.536 22.3438 14.6617 22.3438 13.75C22.3438 12.8383 21.9816 11.964 21.3369 11.3193C20.6923 10.6747 19.8179 10.3125 18.9062 10.3125V10.3125ZM0 32.6563C0 32.2004 0.181082 31.7632 0.50341 31.4409C0.825738 31.1186 1.26291 30.9375 1.71875 30.9375H36.2381C38.2777 30.9375 40.2716 31.5423 41.9674 32.6755C43.6633 33.8086 44.9851 35.4192 45.7656 37.3036C46.5462 39.1879 46.7504 41.2614 46.3525 43.2619C45.9546 45.2623 44.9724 47.0998 43.5302 48.542C42.0879 49.9843 40.2504 50.9664 38.25 51.3644C36.2496 51.7623 34.1761 51.558 32.2917 50.7775C30.4073 49.997 28.7967 48.6752 27.6636 46.9793C26.5304 45.2834 25.9256 43.2896 25.9256 41.25C25.9256 40.7942 26.1067 40.357 26.429 40.0347C26.7514 39.7123 27.1885 39.5313 27.6444 39.5313C28.1002 39.5313 28.5374 39.7123 28.8597 40.0347C29.182 40.357 29.3631 40.7942 29.3631 41.25C29.3631 42.6098 29.7663 43.939 30.5218 45.0696C31.2772 46.2001 32.3509 47.0813 33.6072 47.6017C34.8634 48.122 36.2458 48.2582 37.5794 47.9929C38.913 47.7276 40.138 47.0729 41.0995 46.1114C42.061 45.1499 42.7158 43.9249 42.981 42.5913C43.2463 41.2576 43.1101 39.8753 42.5898 38.6191C42.0694 37.3628 41.1883 36.2891 40.0577 35.5337C38.9271 34.7782 37.5979 34.375 36.2381 34.375H1.71875C1.26291 34.375 0.825738 34.1939 0.50341 33.8716C0.181082 33.5493 0 33.1121 0 32.6563Z" fill="black"/>
</g>
<defs>
<clipPath id="clip0_2_64">
<rect width="55" height="55" fill="white"/>
</clipPath>
</defs>
</svg>
